<svg xmlns="http://www.w3.org/2000/svg" xml:space="preserve" viewBox="0 0 210 255"><path d="m60.7-203.4 46.1.2 68.4-.2c22.9-.1 36.1 15.9 36.1 40.4V-8.4c0 12.3-14 27.7-21.4 35.7s-22.1 24.3-33.6 24.3h-113C20.4 51.6 2 46 2 21.4l-.3-162.3c0-6.4 17.3-24.3 24.8-32.4 7.4-8 22.7-30.2 34.2-30.1" style="fill:#000" transform="matrix(1.0006 0 0 1 -1.376 203.406)"/><path d="M69.5-190.7H174c13.8 0 24.8 11.1 24.9 24.9l.9 152.4c0 2-12.6 32-25.8 32H69.5c-13.8 0-24.9-11.1-24.9-24.9v-159.5c0-13.8 11.1-24.9 24.9-24.9" style="fill:#005f00" transform="matrix(1.0006 0 0 1 -1.376 203.406)"/><path d="M54.5-175.8h99.6c13.7 0 24.9 11.2 24.9 24.9V8.6c0 13.8-11.1 24.9-24.9 24.9H54.5c-13.7 0-24.9-11.2-24.9-24.9v-159.4c0-13.8 11.2-25 24.9-25" style="fill:#cddacd" transform="matrix(1.0006 0 0 1 -1.376 203.406)"/><path d="M44.6-160.8h104.5c13.7 0 24.9 11.2 24.9 24.9V13.6c0 13.8-11.1 24.9-24.9 24.9H44.6c-13.7 0-24.9-11.2-24.9-24.9v-149.5c0-13.7 11.1-24.9 24.9-24.9" style="fill:#147e48" transform="matrix(1.0006 0 0 1 -1.376 203.406)"/><path d="M44.6-160.8h104.5c13.7 0 24.9 11.2 24.9 24.9v6H19.7v-6c0-13.7 11.1-24.9 24.9-24.9" opacity=".6" style="fill:#1a8c50" transform="matrix(1.0006 0 0 1 -1.376 203.406)"/></svg>